<?xml version="1.0" encoding="utf-8"?>
<!-- Generator: Adobe Illustrator 18.0.0, SVG Export Plug-In . SVG Version: 6.00 Build 0)  -->
<!DOCTYPE svg PUBLIC "-//W3C//DTD SVG 1.1//EN" "http://www.w3.org/Graphics/SVG/1.1/DTD/svg11.dtd">
<svg version="1.1" id="Calque_1" xmlns="http://www.w3.org/2000/svg" xmlns:xlink="http://www.w3.org/1999/xlink" x="0px" y="0px"
	 viewBox="0 0 68.4 68.4" enable-background="new 0 0 68.4 68.4" xml:space="preserve">
<polygon fill="#FFFFFF" points="68.4,68.4 0,0 27,0 68.4,41.4 "/>
<g>
	<path fill="#010202" d="M34.5,16.3c0.1,0.6-0.1,1.1-0.5,1.5c-0.3,0.3-0.7,0.5-1.1,0.6s-0.8-0.1-1.2-0.3c0.3,0.5,0.5,0.9,0.5,1.4
		c0,0.5-0.2,0.9-0.6,1.3c-0.5,0.5-1,0.7-1.6,0.6c-0.6-0.1-1.3-0.4-1.9-1.1l-2.4-2.4l5.6-5.6l2.4,2.4C34.1,15.2,34.4,15.7,34.5,16.3z
		 M26.9,17.9l1.7,1.7c0.5,0.5,0.9,0.7,1.3,0.8c0.4,0.1,0.8,0,1.1-0.4c0.3-0.3,0.4-0.7,0.3-1.1c-0.1-0.4-0.4-0.9-0.8-1.3l-1.7-1.7
		L26.9,17.9z M29.4,15.3l1.7,1.7c0.4,0.4,0.7,0.6,1.1,0.6s0.7-0.1,1-0.4c0.3-0.3,0.4-0.6,0.3-1s-0.3-0.7-0.6-1.1l-1.7-1.7L29.4,15.3
		z"/>
	<path fill="#010202" d="M38.5,20.8l-1.8,1.8l2.8,2.8l-0.6,0.6l-2.8-2.8l-1.9,1.9l3.3,3.3L36.8,29l-3.9-3.9l5.6-5.6l3.8,3.8L41.7,24
		L38.5,20.8z"/>
	<path fill="#010202" d="M46.4,28.7l-5,5L40.8,33l5-5l-1.8-1.8l0.6-0.6l4.3,4.3l-0.6,0.6L46.4,28.7z"/>
	<path fill="#010202" d="M47.1,36.5l-2,0.8l-0.7-0.7l8.1-3.1l0.7,0.7l-3.1,8.1l-0.7-0.7l0.8-2L47.1,36.5z M52.1,34.6L48,36.2
		l2.5,2.5L52.1,34.6z"/>
</g>
</svg>
