<?xml version="1.0" encoding="utf-8"?>
<!-- Generator: Adobe Illustrator 18.0.0, SVG Export Plug-In . SVG Version: 6.00 Build 0)  -->
<!DOCTYPE svg PUBLIC "-//W3C//DTD SVG 1.1//EN" "http://www.w3.org/Graphics/SVG/1.1/DTD/svg11.dtd">
<svg version="1.1" id="Calque_1" xmlns="http://www.w3.org/2000/svg" xmlns:xlink="http://www.w3.org/1999/xlink" x="0px" y="0px"
	 viewBox="0 0 120.5 51.2" enable-background="new 0 0 120.5 51.2" xml:space="preserve">
<path fill="#FFFFFF" d="M61.3,26.3v-4.3H63v4.2c0,1.2,0.6,1.8,1.6,1.8c1,0,1.6-0.6,1.6-1.8v-4.3h1.6v4.2c0,2.3-1.3,3.4-3.3,3.4
	C62.5,29.7,61.3,28.5,61.3,26.3z"/>
<path fill="#FFFFFF" d="M69.5,28.4l1-1.2c0.7,0.6,1.4,0.9,2.2,0.9c0.7,0,1.1-0.3,1.1-0.7v0c0-0.4-0.3-0.6-1.5-1
	c-1.5-0.4-2.5-0.8-2.5-2.3v0c0-1.4,1.1-2.3,2.6-2.3c1.1,0,2,0.3,2.8,1l-0.9,1.2c-0.7-0.5-1.3-0.7-1.9-0.7s-1,0.3-1,0.7v0
	c0,0.5,0.3,0.7,1.6,1c1.5,0.4,2.4,0.9,2.4,2.2v0c0,1.5-1.1,2.3-2.7,2.3C71.6,29.6,70.4,29.2,69.5,28.4z"/>
<path fill="#FFFFFF" d="M76.8,28.4l1-1.2c0.7,0.6,1.4,0.9,2.2,0.9c0.7,0,1.1-0.3,1.1-0.7v0c0-0.4-0.3-0.6-1.5-1
	c-1.5-0.4-2.5-0.8-2.5-2.3v0c0-1.4,1.1-2.3,2.6-2.3c1.1,0,2,0.3,2.8,1l-0.9,1.2c-0.7-0.5-1.3-0.7-1.9-0.7c-0.6,0-1,0.3-1,0.7v0
	c0,0.5,0.3,0.7,1.6,1c1.5,0.4,2.4,0.9,2.4,2.2v0c0,1.5-1.1,2.3-2.7,2.3C78.8,29.6,77.7,29.2,76.8,28.4z"/>
<path fill="#FFFFFF" d="M84.7,22.1h5.6v1.5h-4V25h3.5v1.5h-3.5v1.6h4.1v1.5h-5.7V22.1z"/>
<path fill="#FFFFFF" d="M92.4,22.1H94v6h3.7v1.5h-5.4V22.1z"/>
<path fill="#FFFFFF" d="M99.5,22.1h1.6v6h3.7v1.5h-5.4V22.1z"/>
<path fill="#FFFFFF" d="M57.8,26.9c1-0.4,1.6-1.1,1.6-2.3v0c0-0.7-0.2-1.3-0.6-1.7c-0.5-0.5-1.2-0.8-2.2-0.8h-3.4v7.5h1.6v-6h1.6
	c0.8,0,1.3,0.4,1.3,1.1v0c0,0.6-0.5,1.1-1.3,1.1h-1.3l2.6,3.8h1.9L57.8,26.9z"/>
<path fill="#FFFFFF" d="M33.6,8c-10-0.2-18.2,8-18,18c0.2,9.4,7.9,17.1,17.3,17.3c10,0.2,18.2-8,18-18C50.7,15.8,43,8.1,33.6,8z"/>
<path fill="#010202" d="M22.2,26.9c0,0.9-0.3,1.5-0.7,2c-0.5,0.5-1.1,0.7-1.9,0.7c-1.2,0-1.9-0.5-2.4-1.1l1-1.2
	c0.4,0.5,0.8,0.7,1.4,0.7c0.6,0,1-0.4,1-1.2v-4.8h1.7V26.9z"/>
<polygon fill="#010202" points="29.7,29.5 27.5,24 25.2,29.5 23.5,29.5 26.7,22 28.3,22 31.5,29.5 "/>
<path fill="#010202" d="M36.2,29.7c-2.2,0-3.8-1.7-3.8-3.8v0c0-2.1,1.6-3.9,3.9-3.9c1.4,0,2.3,0.5,2.9,1.2l-1,1.2
	c-0.6-0.5-1.2-0.8-1.9-0.8c-1.3,0-2.2,1-2.2,2.3v0.1c0,1.3,1,2.3,2.3,2.3c0.8,0,1.3-0.4,1.9-0.9l1,1.1
	C38.5,29.1,37.6,29.7,36.2,29.7z"/>
<polygon fill="#010202" points="42.7,25.2 42.7,25.3 42.7,29.5 41.1,29.5 41.1,22.1 42.7,22.1 "/>
<polygon fill="#010202" points="42.8,25.3 45.8,22.1 47.8,22.1 44.7,25.2 47.9,29.5 45.9,29.5 "/>
</svg>
